# xmcd
#
# Track frame offsets: 
#        182
#        18965
#        36065
#        50215
#        63037
#        78232
#        91657
#        106422
#        118400
#        133722
#        169085
#
# Disc length: 2454 seconds
#
# Revision: 17
# Processed by: cddbd v1.5.2PL0 Copyright (c) Steve Scherf et al.
# Submitted via: ExactAudioCopy v1.0b4
#
DISCID=8909940b
DTITLE=Various Artist - The Blues Brothers
DYEAR=1980
DGENRE=Soundtrack
TTITLE0=Blues Brothers - She Caught The Katy
TTITLE1=Instrumental - Peter Gunn Theme
TTITLE2=Blues Brother - Gimme Some Lovin'
TTITLE3=Ray Charles and Blues Brothers - Shake A Tail Feather
TTITLE4=Blues Brothers - Everybody Needs Somebody To Love
TTITLE5=James Brown - The Old Landmark
TTITLE6=Aretha Franklin - Think
TTITLE7=Blues Brothers - Theme From Rawhide
TTITLE8=Cab Calloway - Minnie The Moocher
TTITLE9=Blues Brothers - Sweet Home Chicago
TTITLE10=Blues Brothers - Jailhouse Rock
EXTD=YEAR: 1980
EXTT0=The Blues Brothers
EXTT1=Henry Mancini
EXTT2=The Blues Brothers
EXTT3=Ray Charles
EXTT4=The Blues Brothers
EXTT5=James Brown w - Rev. James Cleveland Choir
EXTT6=Aretha Franklin
EXTT7=The Blues Brothers
EXTT8=Cab Calloway
EXTT9=The Blues Brother
EXTT10=The Blues Brothers
PLAYORDER=
